<svg xmlns="http://www.w3.org/2000/svg" xmlns:xlink="http://www.w3.org/1999/xlink" width="500" zoomAndPan="magnify" viewBox="0 0 375 374.999991" height="500" preserveAspectRatio="xMidYMid meet" version="1.0"><defs><g/><clipPath id="4abc50f881"><path d="M 0 230.246094 L 375 230.246094 L 375 274.496094 L 0 274.496094 Z M 0 230.246094 " clip-rule="nonzero"/></clipPath><clipPath id="cf6340dd72"><path d="M 84.019531 131.804688 L 161.269531 131.804688 L 161.269531 209.054688 L 84.019531 209.054688 Z M 84.019531 131.804688 " clip-rule="nonzero"/></clipPath></defs><rect x="-37.5" width="450" fill="#ffffff" y="-37.499999" height="449.999989" fill-opacity="1"/><rect x="-37.5" width="450" fill="#ffffff" y="-37.499999" height="449.999989" fill-opacity="1"/><rect x="-37.5" width="450" fill="#ffffff" y="-37.499999" height="449.999989" fill-opacity="1"/><g clip-path="url(#4abc50f881)"><path fill="#000000" d="M 368.117188 232.445312 C 354.347656 231.039062 340.542969 230.335938 326.703125 230.335938 L 204.753906 230.335938 L 204.753906 235.984375 C 204.585938 236.988281 204.332031 237.972656 203.988281 238.929688 C 203.648438 239.890625 203.222656 240.8125 202.71875 241.699219 C 202.210938 242.582031 201.632812 243.417969 200.980469 244.203125 C 200.324219 244.984375 199.609375 245.707031 198.828125 246.363281 C 198.046875 247.023438 197.210938 247.605469 196.328125 248.121094 C 195.441406 248.632812 194.519531 249.0625 193.558594 249.414062 C 192.59375 249.761719 191.609375 250.027344 190.601562 250.207031 C 189.59375 250.382812 188.578125 250.472656 187.550781 250.472656 C 186.527344 250.472656 185.511719 250.382812 184.503906 250.207031 C 183.496094 250.027344 182.507812 249.761719 181.546875 249.414062 C 180.585938 249.0625 179.664062 248.632812 178.777344 248.121094 C 177.894531 247.605469 177.058594 247.023438 176.277344 246.363281 C 175.496094 245.707031 174.777344 244.984375 174.125 244.203125 C 173.472656 243.417969 172.890625 242.582031 172.386719 241.699219 C 171.882812 240.8125 171.457031 239.890625 171.113281 238.929688 C 170.773438 237.972656 170.519531 236.988281 170.351562 235.984375 L 170.351562 230.335938 L 48.402344 230.335938 C 34.5625 230.335938 20.757812 231.039062 6.988281 232.445312 L 0.0117188 233.160156 L 6.988281 233.875 C 20.757812 235.273438 34.5625 235.96875 48.402344 235.960938 L 97.46875 235.960938 L 97.46875 240.390625 L 102.105469 240.390625 C 102.472656 241.710938 103 242.960938 103.679688 244.148438 L 100.398438 247.40625 L 106.691406 253.664062 L 109.972656 250.40625 C 111.167969 251.085938 112.425781 251.605469 113.753906 251.96875 L 113.753906 256.578125 L 122.671875 256.578125 L 122.671875 251.96875 C 124 251.605469 125.261719 251.085938 126.453125 250.40625 L 129.734375 253.664062 L 136.03125 247.40625 L 132.746094 244.148438 C 133.425781 242.960938 133.953125 241.710938 134.320312 240.390625 L 138.957031 240.390625 L 138.957031 235.960938 L 146.023438 235.960938 L 146.023438 241.996094 L 155.296875 241.996094 C 156.03125 244.632812 157.082031 247.140625 158.445312 249.515625 L 151.878906 256.054688 L 164.46875 268.59375 L 171.03125 262.074219 C 173.425781 263.425781 175.945312 264.46875 178.597656 265.199219 L 178.597656 274.417969 L 196.433594 274.417969 L 196.433594 265.191406 C 199.085938 264.457031 201.609375 263.414062 204 262.0625 L 210.5625 268.582031 L 223.152344 256.046875 L 216.589844 249.53125 C 217.957031 247.15625 219.003906 244.648438 219.738281 242.011719 L 229.011719 242.011719 L 229.011719 235.984375 L 236.078125 235.984375 L 236.078125 240.417969 L 240.71875 240.417969 C 241.085938 241.734375 241.609375 242.988281 242.292969 244.175781 L 239.007812 247.433594 L 245.304688 253.691406 L 248.582031 250.429688 C 249.777344 251.109375 251.039062 251.632812 252.363281 251.996094 L 252.363281 256.605469 L 261.28125 256.605469 L 261.28125 251.996094 C 262.609375 251.632812 263.871094 251.109375 265.066406 250.429688 L 268.34375 253.691406 L 274.640625 247.433594 L 271.355469 244.175781 C 272.039062 242.988281 272.5625 241.734375 272.929688 240.417969 L 277.566406 240.417969 L 277.566406 235.984375 L 326.636719 235.984375 C 340.476562 235.996094 354.28125 235.300781 368.046875 233.902344 L 375.027344 233.1875 Z M 118.222656 244.648438 C 117.652344 244.648438 117.085938 244.59375 116.523438 244.484375 C 115.960938 244.371094 115.414062 244.207031 114.886719 243.992188 C 114.359375 243.773438 113.855469 243.507812 113.378906 243.191406 C 112.902344 242.875 112.464844 242.515625 112.058594 242.113281 C 111.652344 241.710938 111.292969 241.273438 110.972656 240.800781 C 110.65625 240.328125 110.386719 239.828125 110.167969 239.300781 C 109.949219 238.777344 109.785156 238.234375 109.671875 237.675781 C 109.558594 237.117188 109.503906 236.554688 109.503906 235.984375 L 126.941406 235.984375 C 126.941406 236.554688 126.886719 237.117188 126.773438 237.675781 C 126.664062 238.234375 126.5 238.777344 126.277344 239.300781 C 126.058594 239.828125 125.792969 240.328125 125.472656 240.800781 C 125.15625 241.273438 124.792969 241.710938 124.390625 242.113281 C 123.984375 242.515625 123.542969 242.875 123.066406 243.191406 C 122.589844 243.507812 122.089844 243.773438 121.558594 243.992188 C 121.03125 244.207031 120.484375 244.371094 119.925781 244.484375 C 119.363281 244.59375 118.796875 244.648438 118.222656 244.648438 Z M 256.882812 244.648438 C 256.308594 244.648438 255.742188 244.59375 255.179688 244.484375 C 254.617188 244.371094 254.074219 244.207031 253.542969 243.992188 C 253.015625 243.773438 252.511719 243.507812 252.039062 243.191406 C 251.5625 242.875 251.121094 242.515625 250.714844 242.113281 C 250.3125 241.710938 249.949219 241.273438 249.632812 240.800781 C 249.3125 240.328125 249.042969 239.828125 248.824219 239.300781 C 248.605469 238.777344 248.441406 238.234375 248.328125 237.675781 C 248.21875 237.117188 248.160156 236.554688 248.160156 235.984375 L 265.601562 235.984375 C 265.601562 236.554688 265.542969 237.117188 265.433594 237.675781 C 265.320312 238.234375 265.15625 238.777344 264.9375 239.300781 C 264.71875 239.828125 264.449219 240.328125 264.132812 240.800781 C 263.8125 241.273438 263.453125 241.710938 263.046875 242.113281 C 262.640625 242.515625 262.203125 242.875 261.726562 243.191406 C 261.25 243.507812 260.746094 243.773438 260.21875 243.992188 C 259.6875 244.207031 259.144531 244.371094 258.582031 244.484375 C 258.019531 244.59375 257.453125 244.648438 256.882812 244.648438 Z M 256.882812 244.648438 " fill-opacity="1" fill-rule="nonzero"/></g><g clip-path="url(#cf6340dd72)"><path fill="#0074d9" d="M 149.953125 143.117188 C 142.96875 136.128906 133.3125 131.804688 122.652344 131.804688 C 122.648438 131.804688 122.644531 131.804688 122.644531 131.804688 C 122.640625 131.804688 122.636719 131.804688 122.636719 131.804688 C 111.972656 131.804688 102.320312 136.128906 95.332031 143.117188 C 93.199219 145.25 91.316406 147.636719 89.726562 150.21875 C 89.695312 150.261719 89.667969 150.304688 89.644531 150.351562 C 86.074219 156.203125 84.019531 163.074219 84.019531 170.429688 C 84.019531 177.785156 86.074219 184.65625 89.640625 190.507812 C 89.667969 190.554688 89.695312 190.597656 89.722656 190.640625 C 91.3125 193.222656 93.199219 195.605469 95.332031 197.742188 C 102.320312 204.730469 111.980469 209.054688 122.644531 209.054688 C 133.308594 209.054688 142.964844 204.730469 149.953125 197.742188 C 156.945312 190.75 161.269531 181.09375 161.269531 170.429688 C 161.269531 159.765625 156.945312 150.105469 149.953125 143.117188 Z M 154.285156 187.886719 L 146.371094 187.988281 C 148.109375 183.03125 149.140625 177.457031 149.257812 171.554688 L 158.753906 171.65625 C 158.558594 177.53125 156.960938 183.046875 154.285156 187.886719 Z M 86.515625 170.882812 L 96.023438 170.984375 C 96.085938 177.335938 97.199219 183.320312 99.125 188.574219 L 91.449219 188.671875 C 88.382812 183.4375 86.59375 177.367188 86.515625 170.882812 Z M 91.449219 152.1875 L 99.125 152.285156 C 97.339844 157.160156 96.25 162.664062 96.050781 168.503906 L 86.566406 168.402344 C 86.894531 162.507812 88.628906 156.996094 91.449219 152.1875 Z M 133.507812 168.90625 C 133.449219 163.074219 133.046875 157.574219 132.375 152.699219 L 143.71875 152.839844 C 145.527344 157.667969 146.609375 163.175781 146.757812 169.046875 Z M 122.644531 206.5625 C 120.625 206.5625 118.628906 202.738281 117.035156 196.554688 C 116.585938 194.816406 116.183594 192.90625 115.835938 190.847656 L 129.480469 190.675781 C 129.121094 192.800781 128.710938 194.769531 128.25 196.554688 C 126.660156 202.738281 124.664062 206.5625 122.644531 206.5625 Z M 115.449219 188.371094 C 114.722656 183.273438 114.292969 177.421875 114.261719 171.179688 L 131.023438 171.359375 C 130.984375 177.460938 130.570312 183.183594 129.863281 188.191406 Z M 114.269531 168.699219 C 114.339844 162.824219 114.761719 157.320312 115.449219 152.488281 L 129.863281 152.667969 C 130.546875 157.503906 130.957031 163.011719 131.019531 168.878906 Z M 115.835938 150.011719 C 116.1875 147.953125 116.589844 146.039062 117.035156 144.304688 C 118.628906 138.121094 120.625 134.296875 122.644531 134.296875 C 124.664062 134.296875 126.660156 138.121094 128.25 144.304688 C 128.710938 146.089844 129.121094 148.058594 129.476562 150.183594 Z M 132 150.214844 C 131.613281 147.851562 131.160156 145.664062 130.652344 143.691406 C 129.695312 139.980469 128.5 136.984375 127.128906 134.925781 C 131.914062 136.285156 136.214844 139.765625 139.5625 144.695312 C 140.726562 146.414062 141.777344 148.308594 142.691406 150.347656 Z M 114.632812 143.691406 C 114.140625 145.597656 113.703125 147.707031 113.324219 149.980469 L 102.816406 149.847656 C 103.679688 147.996094 104.648438 146.269531 105.722656 144.695312 C 109.066406 139.765625 113.367188 136.28125 118.15625 134.925781 C 116.785156 136.980469 115.589844 139.980469 114.632812 143.691406 Z M 112.945312 152.457031 C 112.261719 157.324219 111.847656 162.832031 111.78125 168.671875 L 98.542969 168.53125 C 98.746094 162.644531 99.894531 157.128906 101.765625 152.316406 Z M 98.515625 171.011719 L 111.773438 171.152344 C 111.804688 177.378906 112.222656 183.246094 112.945312 188.402344 L 101.765625 188.542969 C 99.753906 183.371094 98.582031 177.394531 98.515625 171.011719 Z M 113.324219 190.878906 C 113.703125 193.152344 114.140625 195.257812 114.632812 197.167969 C 115.589844 200.882812 116.785156 203.875 118.15625 205.933594 C 113.371094 204.574219 109.070312 201.09375 105.722656 196.164062 C 104.652344 194.585938 103.679688 192.859375 102.820312 191.011719 Z M 130.652344 197.167969 C 131.160156 195.195312 131.613281 193.007812 132.003906 190.648438 L 142.695312 190.515625 C 141.78125 192.554688 140.730469 194.445312 139.566406 196.164062 C 136.21875 201.09375 131.917969 204.574219 127.132812 205.933594 C 128.503906 203.875 129.695312 200.882812 130.652344 197.167969 Z M 132.375 188.160156 C 133.066406 183.128906 133.476562 177.429688 133.515625 171.386719 L 146.765625 171.527344 C 146.644531 177.503906 145.554688 183.109375 143.71875 188.015625 Z M 149.25 169.074219 C 149.109375 163.257812 148.089844 157.761719 146.371094 152.871094 L 154.285156 152.972656 C 156.957031 157.804688 158.554688 163.3125 158.75 169.175781 Z M 148.195312 144.878906 C 149.898438 146.582031 151.429688 148.457031 152.765625 150.472656 L 145.414062 150.382812 C 144.335938 147.808594 143.058594 145.433594 141.617188 143.304688 C 139.863281 140.726562 137.863281 138.503906 135.667969 136.71875 C 140.40625 138.546875 144.664062 141.347656 148.195312 144.878906 Z M 97.09375 144.878906 C 100.625 141.351562 104.878906 138.546875 109.617188 136.71875 C 107.425781 138.503906 105.421875 140.722656 103.671875 143.304688 C 102.332031 145.273438 101.136719 147.460938 100.113281 149.816406 L 93.027344 149.726562 C 94.242188 147.992188 95.601562 146.371094 97.09375 144.878906 Z M 93.027344 191.132812 L 100.113281 191.042969 C 101.136719 193.398438 102.332031 195.582031 103.667969 197.554688 C 105.421875 200.136719 107.421875 202.355469 109.617188 204.144531 C 104.878906 202.308594 100.621094 199.511719 97.089844 195.980469 C 95.601562 194.488281 94.242188 192.863281 93.027344 191.132812 Z M 148.195312 195.980469 C 144.664062 199.507812 140.40625 202.308594 135.667969 204.140625 C 137.863281 202.355469 139.863281 200.136719 141.617188 197.554688 C 143.058594 195.425781 144.335938 193.050781 145.414062 190.476562 L 152.765625 190.386719 C 151.429688 192.402344 149.898438 194.277344 148.195312 195.980469 Z M 148.195312 195.980469 " fill-opacity="1" fill-rule="nonzero"/></g><g fill="#000000" fill-opacity="1"><g transform="translate(160.9531, 200.060658)"><g><path d="M 7.328125 0 L 7.328125 -56.4375 L 31.421875 -56.4375 C 34.898438 -56.4375 37.84375 -55.890625 40.25 -54.796875 C 42.65625 -53.703125 44.472656 -52.144531 45.703125 -50.125 C 46.941406 -48.101562 47.5625 -45.71875 47.5625 -42.96875 C 47.5625 -40.46875 46.957031 -38.265625 45.75 -36.359375 C 44.539062 -34.460938 42.800781 -32.929688 40.53125 -31.765625 L 40.53125 -30.96875 C 44.082031 -30.039062 46.820312 -28.351562 48.75 -25.90625 C 50.6875 -23.457031 51.65625 -20.457031 51.65625 -16.90625 C 51.65625 -11.5 50.023438 -7.328125 46.765625 -4.390625 C 43.515625 -1.460938 38.6875 0 32.28125 0 Z M 29.109375 -33.9375 C 34.304688 -33.9375 36.90625 -36.273438 36.90625 -40.953125 C 36.90625 -43.347656 36.257812 -45.128906 34.96875 -46.296875 C 33.6875 -47.472656 31.734375 -48.0625 29.109375 -48.0625 L 18.484375 -48.0625 L 18.484375 -33.9375 Z M 31.15625 -8.84375 C 37.300781 -8.84375 40.375 -11.632812 40.375 -17.21875 C 40.375 -22.832031 37.300781 -25.640625 31.15625 -25.640625 L 18.484375 -25.640625 L 18.484375 -8.84375 Z M 31.15625 -8.84375 "/></g></g></g><g fill="#000000" fill-opacity="1"><g transform="translate(216.153011, 200.060658)"><g><path d="M 18.484375 -56.4375 L 18.484375 -9.34375 L 43.859375 -9.34375 L 43.859375 0 L 7.328125 0 L 7.328125 -56.4375 Z M 18.484375 -56.4375 "/></g></g></g><g fill="#000000" fill-opacity="1"><g transform="translate(261.856992, 200.060658)"><g><path d="M 54.15625 0 L 42.421875 0 L 38.1875 -13.015625 L 16.5625 -13.015625 L 12.3125 0 L 0.84375 0 L 20.34375 -56.4375 L 34.671875 -56.4375 Z M 26.828125 -44.671875 L 19.578125 -22.390625 L 35.09375 -22.390625 L 27.796875 -44.671875 Z M 26.828125 -44.671875 "/></g></g></g><g fill="#000000" fill-opacity="1"><g transform="translate(316.863908, 200.060658)"><g><path d="M 25.015625 0.8125 C 21.097656 0.8125 17.613281 0.332031 14.5625 -0.625 C 11.519531 -1.59375 8.984375 -2.863281 6.953125 -4.4375 C 4.921875 -6.007812 3.363281 -7.734375 2.28125 -9.609375 L 8.421875 -17.109375 L 9.375 -17.109375 C 11.070312 -14.578125 13.226562 -12.566406 15.84375 -11.078125 C 18.457031 -9.585938 21.515625 -8.84375 25.015625 -8.84375 C 28.003906 -8.84375 30.253906 -9.472656 31.765625 -10.734375 C 33.285156 -11.992188 34.046875 -13.726562 34.046875 -15.9375 C 34.046875 -17.28125 33.800781 -18.398438 33.3125 -19.296875 C 32.820312 -20.203125 32.007812 -20.972656 30.875 -21.609375 C 29.75 -22.253906 28.222656 -22.8125 26.296875 -23.28125 L 19.03125 -24.9375 C 13.957031 -26.09375 10.175781 -28.015625 7.6875 -30.703125 C 5.207031 -33.398438 3.96875 -36.894531 3.96875 -41.1875 C 3.96875 -44.382812 4.765625 -47.191406 6.359375 -49.609375 C 7.960938 -52.023438 10.285156 -53.898438 13.328125 -55.234375 C 16.378906 -56.578125 20.03125 -57.25 24.28125 -57.25 C 28.632812 -57.25 32.359375 -56.675781 35.453125 -55.53125 C 38.554688 -54.382812 41.175781 -52.628906 43.3125 -50.265625 L 37.796875 -42.703125 L 36.828125 -42.703125 C 35.234375 -44.367188 33.40625 -45.617188 31.34375 -46.453125 C 29.289062 -47.296875 26.9375 -47.71875 24.28125 -47.71875 C 21.21875 -47.71875 18.890625 -47.175781 17.296875 -46.09375 C 15.703125 -45.007812 14.90625 -43.515625 14.90625 -41.609375 C 14.90625 -39.835938 15.460938 -38.421875 16.578125 -37.359375 C 17.703125 -36.304688 19.640625 -35.488281 22.390625 -34.90625 L 29.796875 -33.359375 C 35.285156 -32.203125 39.265625 -30.238281 41.734375 -27.46875 C 44.203125 -24.695312 45.4375 -21.085938 45.4375 -16.640625 C 45.4375 -13.109375 44.675781 -10.035156 43.15625 -7.421875 C 41.632812 -4.816406 39.34375 -2.789062 36.28125 -1.34375 C 33.21875 0.09375 29.460938 0.8125 25.015625 0.8125 Z M 25.015625 0.8125 "/></g></g></g><g fill="#000000" fill-opacity="1"><g transform="translate(24.666778, 199.920539)"><g><path d="M 7.328125 0 L 7.328125 -56.4375 L 30 -56.4375 C 35.84375 -56.4375 40.25 -55.09375 43.21875 -52.40625 C 46.1875 -49.71875 47.671875 -46.003906 47.671875 -41.265625 C 47.671875 -37.847656 46.800781 -35.046875 45.0625 -32.859375 C 43.332031 -30.671875 40.742188 -28.992188 37.296875 -27.828125 L 37.296875 -27.015625 C 39.066406 -26.242188 40.5 -25.097656 41.59375 -23.578125 C 42.6875 -22.066406 43.722656 -19.816406 44.703125 -16.828125 L 50.34375 0 L 38.875 0 L 33.359375 -16.875 C 32.785156 -18.570312 32.144531 -19.890625 31.4375 -20.828125 C 30.726562 -21.765625 29.828125 -22.445312 28.734375 -22.875 C 27.640625 -23.300781 26.21875 -23.515625 24.46875 -23.515625 L 18.484375 -23.515625 L 18.484375 0 Z M 28.640625 -32.34375 C 34.046875 -32.34375 36.75 -34.867188 36.75 -39.921875 C 36.75 -45.035156 34.046875 -47.59375 28.640625 -47.59375 L 18.484375 -47.59375 L 18.484375 -32.34375 Z M 28.640625 -32.34375 "/></g></g></g><g fill="#ffffff" fill-opacity="1"><g transform="translate(21.609378, 316.569471)"><g><path d="M 6.96875 0.21875 C 5.875 0.21875 4.898438 0.0859375 4.046875 -0.171875 C 3.203125 -0.441406 2.492188 -0.796875 1.921875 -1.234375 C 1.359375 -1.671875 0.929688 -2.148438 0.640625 -2.671875 L 2.34375 -4.765625 L 2.609375 -4.765625 C 3.078125 -4.054688 3.675781 -3.492188 4.40625 -3.078125 C 5.132812 -2.660156 5.988281 -2.453125 6.96875 -2.453125 C 7.789062 -2.453125 8.410156 -2.628906 8.828125 -2.984375 C 9.253906 -3.335938 9.46875 -3.820312 9.46875 -4.4375 C 9.46875 -4.8125 9.398438 -5.125 9.265625 -5.375 C 9.128906 -5.625 8.90625 -5.835938 8.59375 -6.015625 C 8.28125 -6.191406 7.851562 -6.347656 7.3125 -6.484375 L 5.296875 -6.9375 C 3.890625 -7.257812 2.835938 -7.796875 2.140625 -8.546875 C 1.453125 -9.296875 1.109375 -10.269531 1.109375 -11.46875 C 1.109375 -12.351562 1.328125 -13.128906 1.765625 -13.796875 C 2.210938 -14.472656 2.859375 -15 3.703125 -15.375 C 4.554688 -15.75 5.570312 -15.9375 6.75 -15.9375 C 7.96875 -15.9375 9.003906 -15.773438 9.859375 -15.453125 C 10.722656 -15.128906 11.453125 -14.640625 12.046875 -13.984375 L 10.515625 -11.875 L 10.25 -11.875 C 9.800781 -12.34375 9.289062 -12.691406 8.71875 -12.921875 C 8.144531 -13.160156 7.488281 -13.28125 6.75 -13.28125 C 5.90625 -13.28125 5.257812 -13.128906 4.8125 -12.828125 C 4.363281 -12.523438 4.140625 -12.109375 4.140625 -11.578125 C 4.140625 -11.085938 4.296875 -10.691406 4.609375 -10.390625 C 4.921875 -10.097656 5.460938 -9.875 6.234375 -9.71875 L 8.296875 -9.28125 C 9.816406 -8.957031 10.921875 -8.410156 11.609375 -7.640625 C 12.296875 -6.867188 12.640625 -5.863281 12.640625 -4.625 C 12.640625 -3.644531 12.425781 -2.789062 12 -2.0625 C 11.582031 -1.34375 10.945312 -0.78125 10.09375 -0.375 C 9.238281 0.0195312 8.195312 0.21875 6.96875 0.21875 Z M 6.96875 0.21875 "/></g></g></g><g fill="#ffffff" fill-opacity="1"><g transform="translate(35.099169, 316.569471)"><g><path d="M 5.421875 0.21875 C 4.085938 0.21875 3.101562 -0.140625 2.46875 -0.859375 C 1.84375 -1.585938 1.53125 -2.632812 1.53125 -4 L 1.53125 -11.84375 L 4.5 -11.84375 L 4.5 -4.375 C 4.5 -3.644531 4.65625 -3.113281 4.96875 -2.78125 C 5.28125 -2.445312 5.757812 -2.28125 6.40625 -2.28125 C 7.238281 -2.28125 7.882812 -2.550781 8.34375 -3.09375 C 8.800781 -3.632812 9.03125 -4.488281 9.03125 -5.65625 L 9.03125 -11.84375 L 12 -11.84375 L 12 0 L 9.140625 0 L 9.140625 -1.734375 L 8.921875 -1.796875 C 8.535156 -1.117188 8.066406 -0.613281 7.515625 -0.28125 C 6.972656 0.0507812 6.273438 0.21875 5.421875 0.21875 Z M 5.421875 0.21875 "/></g></g></g><g fill="#ffffff" fill-opacity="1"><g transform="translate(48.803766, 316.569471)"><g><path d="M 1.703125 4.796875 L 1.703125 -11.84375 L 4.6875 -11.84375 L 4.6875 -10.296875 L 4.90625 -10.265625 C 5.257812 -10.859375 5.726562 -11.304688 6.3125 -11.609375 C 6.90625 -11.921875 7.59375 -12.078125 8.375 -12.078125 C 9.332031 -12.078125 10.164062 -11.847656 10.875 -11.390625 C 11.59375 -10.941406 12.148438 -10.253906 12.546875 -9.328125 C 12.941406 -8.410156 13.140625 -7.273438 13.140625 -5.921875 C 13.140625 -4.566406 12.925781 -3.429688 12.5 -2.515625 C 12.082031 -1.597656 11.5 -0.910156 10.75 -0.453125 C 10.007812 -0.00390625 9.15625 0.21875 8.1875 0.21875 C 7.445312 0.21875 6.804688 0.0976562 6.265625 -0.140625 C 5.734375 -0.390625 5.28125 -0.773438 4.90625 -1.296875 L 4.6875 -1.25 L 4.6875 4.796875 Z M 7.359375 -2.296875 C 8.242188 -2.296875 8.914062 -2.585938 9.375 -3.171875 C 9.832031 -3.753906 10.0625 -4.671875 10.0625 -5.921875 C 10.0625 -7.171875 9.832031 -8.085938 9.375 -8.671875 C 8.914062 -9.253906 8.242188 -9.546875 7.359375 -9.546875 C 6.523438 -9.546875 5.863281 -9.242188 5.375 -8.640625 C 4.894531 -8.046875 4.65625 -7.140625 4.65625 -5.921875 C 4.65625 -4.710938 4.894531 -3.804688 5.375 -3.203125 C 5.863281 -2.597656 6.523438 -2.296875 7.359375 -2.296875 Z M 7.359375 -2.296875 "/></g></g></g><g fill="#ffffff" fill-opacity="1"><g transform="translate(62.991681, 316.569471)"><g><path d="M 1.703125 4.796875 L 1.703125 -11.84375 L 4.6875 -11.84375 L 4.6875 -10.296875 L 4.90625 -10.265625 C 5.257812 -10.859375 5.726562 -11.304688 6.3125 -11.609375 C 6.90625 -11.921875 7.59375 -12.078125 8.375 -12.078125 C 9.332031 -12.078125 10.164062 -11.847656 10.875 -11.390625 C 11.59375 -10.941406 12.148438 -10.253906 12.546875 -9.328125 C 12.941406 -8.410156 13.140625 -7.273438 13.140625 -5.921875 C 13.140625 -4.566406 12.925781 -3.429688 12.5 -2.515625 C 12.082031 -1.597656 11.5 -0.910156 10.75 -0.453125 C 10.007812 -0.00390625 9.15625 0.21875 8.1875 0.21875 C 7.445312 0.21875 6.804688 0.0976562 6.265625 -0.140625 C 5.734375 -0.390625 5.28125 -0.773438 4.90625 -1.296875 L 4.6875 -1.25 L 4.6875 4.796875 Z M 7.359375 -2.296875 C 8.242188 -2.296875 8.914062 -2.585938 9.375 -3.171875 C 9.832031 -3.753906 10.0625 -4.671875 10.0625 -5.921875 C 10.0625 -7.171875 9.832031 -8.085938 9.375 -8.671875 C 8.914062 -9.253906 8.242188 -9.546875 7.359375 -9.546875 C 6.523438 -9.546875 5.863281 -9.242188 5.375 -8.640625 C 4.894531 -8.046875 4.65625 -7.140625 4.65625 -5.921875 C 4.65625 -4.710938 4.894531 -3.804688 5.375 -3.203125 C 5.863281 -2.597656 6.523438 -2.296875 7.359375 -2.296875 Z M 7.359375 -2.296875 "/></g></g></g><g fill="#ffffff" fill-opacity="1"><g transform="translate(77.179595, 316.569471)"><g><path d="M 4.921875 0.21875 C 3.847656 0.21875 3.03125 -0.0664062 2.46875 -0.640625 C 1.914062 -1.210938 1.640625 -2.085938 1.640625 -3.265625 L 1.640625 -16.609375 L 4.609375 -16.609375 L 4.609375 -3.390625 C 4.609375 -2.660156 4.910156 -2.296875 5.515625 -2.296875 C 5.679688 -2.296875 5.863281 -2.328125 6.0625 -2.390625 L 6.203125 -2.34375 L 6.484375 -0.046875 C 6.316406 0.0351562 6.097656 0.0976562 5.828125 0.140625 C 5.554688 0.191406 5.253906 0.21875 4.921875 0.21875 Z M 4.921875 0.21875 "/></g></g></g><g fill="#ffffff" fill-opacity="1"><g transform="translate(83.988933, 316.569471)"><g><path d="M 2.625 5.03125 C 2.113281 5.03125 1.648438 4.988281 1.234375 4.90625 C 0.828125 4.832031 0.492188 4.726562 0.234375 4.59375 L 0.703125 2.1875 L 0.90625 2.125 C 1.082031 2.21875 1.300781 2.289062 1.5625 2.34375 C 1.832031 2.40625 2.109375 2.4375 2.390625 2.4375 C 2.867188 2.4375 3.265625 2.375 3.578125 2.25 C 3.898438 2.125 4.171875 1.914062 4.390625 1.625 C 4.617188 1.332031 4.816406 0.929688 4.984375 0.421875 L 0.265625 -11.84375 L 3.375 -11.84375 L 6.3125 -3.609375 L 6.578125 -3.609375 L 9.4375 -11.84375 L 12.46875 -11.84375 L 7.71875 0.734375 C 7.332031 1.753906 6.910156 2.570312 6.453125 3.1875 C 6.003906 3.8125 5.46875 4.273438 4.84375 4.578125 C 4.226562 4.878906 3.488281 5.03125 2.625 5.03125 Z M 2.625 5.03125 "/></g></g></g><g fill="#ffffff" fill-opacity="1"><g transform="translate(96.705423, 316.569471)"><g/></g></g><g fill="#ffffff" fill-opacity="1"><g transform="translate(101.892984, 316.569471)"><g><path d="M 6.90625 0.21875 C 5.757812 0.21875 4.742188 -0.015625 3.859375 -0.484375 C 2.984375 -0.960938 2.296875 -1.660156 1.796875 -2.578125 C 1.304688 -3.503906 1.0625 -4.617188 1.0625 -5.921875 C 1.0625 -7.222656 1.304688 -8.332031 1.796875 -9.25 C 2.296875 -10.175781 2.984375 -10.878906 3.859375 -11.359375 C 4.734375 -11.835938 5.734375 -12.078125 6.859375 -12.078125 C 9.359375 -12.078125 10.957031 -11.171875 11.65625 -9.359375 L 9.609375 -7.890625 L 9.390625 -7.890625 C 9.148438 -8.453125 8.832031 -8.867188 8.4375 -9.140625 C 8.050781 -9.410156 7.523438 -9.546875 6.859375 -9.546875 C 5.992188 -9.546875 5.320312 -9.25 4.84375 -8.65625 C 4.363281 -8.0625 4.125 -7.148438 4.125 -5.921875 C 4.125 -4.703125 4.367188 -3.789062 4.859375 -3.1875 C 5.347656 -2.59375 6.03125 -2.296875 6.90625 -2.296875 C 7.550781 -2.296875 8.097656 -2.46875 8.546875 -2.8125 C 8.992188 -3.164062 9.3125 -3.664062 9.5 -4.3125 L 9.734375 -4.34375 L 11.84375 -3.1875 C 11.539062 -2.175781 10.984375 -1.351562 10.171875 -0.71875 C 9.359375 -0.09375 8.269531 0.21875 6.90625 0.21875 Z M 6.90625 0.21875 "/></g></g></g><g fill="#ffffff" fill-opacity="1"><g transform="translate(114.104687, 316.569471)"><g><path d="M 1.703125 0 L 1.703125 -16.609375 L 4.6875 -16.609375 L 4.6875 -10.296875 L 4.90625 -10.265625 C 5.300781 -10.835938 5.785156 -11.28125 6.359375 -11.59375 C 6.929688 -11.914062 7.625 -12.078125 8.4375 -12.078125 C 11.050781 -12.078125 12.359375 -10.59375 12.359375 -7.625 L 12.359375 0 L 9.375 0 L 9.375 -7.25 C 9.375 -8.0625 9.210938 -8.648438 8.890625 -9.015625 C 8.566406 -9.378906 8.066406 -9.5625 7.390625 -9.5625 C 6.554688 -9.5625 5.894531 -9.28125 5.40625 -8.71875 C 4.925781 -8.164062 4.6875 -7.304688 4.6875 -6.140625 L 4.6875 0 Z M 1.703125 0 "/></g></g></g><g fill="#ffffff" fill-opacity="1"><g transform="translate(127.981129, 316.569471)"><g><path d="M 4.625 0.21875 C 3.863281 0.21875 3.203125 0.0820312 2.640625 -0.1875 C 2.085938 -0.46875 1.660156 -0.878906 1.359375 -1.421875 C 1.054688 -1.960938 0.90625 -2.613281 0.90625 -3.375 C 0.90625 -4.070312 1.054688 -4.660156 1.359375 -5.140625 C 1.660156 -5.617188 2.125 -6.007812 2.75 -6.3125 C 3.382812 -6.613281 4.207031 -6.847656 5.21875 -7.015625 C 5.925781 -7.128906 6.460938 -7.253906 6.828125 -7.390625 C 7.203125 -7.523438 7.453125 -7.675781 7.578125 -7.84375 C 7.710938 -8.019531 7.78125 -8.242188 7.78125 -8.515625 C 7.78125 -8.890625 7.644531 -9.175781 7.375 -9.375 C 7.113281 -9.570312 6.675781 -9.671875 6.0625 -9.671875 C 5.40625 -9.671875 4.773438 -9.523438 4.171875 -9.234375 C 3.578125 -8.941406 3.0625 -8.554688 2.625 -8.078125 L 2.421875 -8.078125 L 1.171875 -9.953125 C 1.773438 -10.617188 2.507812 -11.140625 3.375 -11.515625 C 4.238281 -11.890625 5.179688 -12.078125 6.203125 -12.078125 C 7.773438 -12.078125 8.910156 -11.742188 9.609375 -11.078125 C 10.316406 -10.410156 10.671875 -9.460938 10.671875 -8.234375 L 10.671875 -3.09375 C 10.671875 -2.5625 10.898438 -2.296875 11.359375 -2.296875 C 11.546875 -2.296875 11.722656 -2.328125 11.890625 -2.390625 L 12.046875 -2.359375 L 12.25 -0.28125 C 12.09375 -0.175781 11.863281 -0.0859375 11.5625 -0.015625 C 11.269531 0.0546875 10.953125 0.09375 10.609375 0.09375 C 9.898438 0.09375 9.34375 -0.0390625 8.9375 -0.3125 C 8.539062 -0.59375 8.257812 -1.019531 8.09375 -1.59375 L 7.859375 -1.625 C 7.285156 -0.394531 6.207031 0.21875 4.625 0.21875 Z M 5.5625 -2 C 6.25 -2 6.796875 -2.226562 7.203125 -2.6875 C 7.617188 -3.15625 7.828125 -3.800781 7.828125 -4.625 L 7.828125 -5.828125 L 7.625 -5.859375 C 7.445312 -5.722656 7.210938 -5.601562 6.921875 -5.5 C 6.628906 -5.40625 6.210938 -5.3125 5.671875 -5.21875 C 5.023438 -5.113281 4.5625 -4.929688 4.28125 -4.671875 C 4 -4.410156 3.859375 -4.039062 3.859375 -3.5625 C 3.859375 -3.050781 4.007812 -2.660156 4.3125 -2.390625 C 4.613281 -2.128906 5.03125 -2 5.5625 -2 Z M 5.5625 -2 "/></g></g></g><g fill="#ffffff" fill-opacity="1"><g transform="translate(140.472079, 316.569471)"><g><path d="M 3.1875 -13.265625 C 2.65625 -13.265625 2.21875 -13.425781 1.875 -13.75 C 1.539062 -14.082031 1.375 -14.503906 1.375 -15.015625 C 1.375 -15.523438 1.539062 -15.941406 1.875 -16.265625 C 2.21875 -16.597656 2.65625 -16.765625 3.1875 -16.765625 C 3.550781 -16.765625 3.867188 -16.6875 4.140625 -16.53125 C 4.421875 -16.382812 4.640625 -16.175781 4.796875 -15.90625 C 4.953125 -15.644531 5.03125 -15.347656 5.03125 -15.015625 C 5.03125 -14.679688 4.953125 -14.378906 4.796875 -14.109375 C 4.640625 -13.847656 4.421875 -13.640625 4.140625 -13.484375 C 3.867188 -13.335938 3.550781 -13.265625 3.1875 -13.265625 Z M 1.703125 0 L 1.703125 -11.84375 L 4.6875 -11.84375 L 4.6875 0 Z M 1.703125 0 "/></g></g></g><g fill="#ffffff" fill-opacity="1"><g transform="translate(146.851805, 316.569471)"><g><path d="M 1.703125 0 L 1.703125 -11.84375 L 4.5625 -11.84375 L 4.5625 -10.109375 L 4.796875 -10.0625 C 5.523438 -11.40625 6.71875 -12.078125 8.375 -12.078125 C 9.75 -12.078125 10.753906 -11.703125 11.390625 -10.953125 C 12.035156 -10.210938 12.359375 -9.128906 12.359375 -7.703125 L 12.359375 0 L 9.375 0 L 9.375 -7.34375 C 9.375 -8.125 9.21875 -8.6875 8.90625 -9.03125 C 8.59375 -9.382812 8.085938 -9.5625 7.390625 -9.5625 C 6.535156 -9.5625 5.867188 -9.285156 5.390625 -8.734375 C 4.921875 -8.179688 4.6875 -7.316406 4.6875 -6.140625 L 4.6875 0 Z M 1.703125 0 "/></g></g></g><g fill="#ffffff" fill-opacity="1"><g transform="translate(160.722654, 316.569471)"><g/></g></g><g fill="#ffffff" fill-opacity="1"><g transform="translate(165.910215, 316.569471)"><g/></g></g><g fill="#ffffff" fill-opacity="1"><g transform="translate(171.093743, 316.569471)"><g><path d="M 1.703125 0 L 1.703125 -11.84375 L 4.5625 -11.84375 L 4.5625 -10.265625 L 4.796875 -10.21875 C 5.179688 -10.851562 5.628906 -11.320312 6.140625 -11.625 C 6.660156 -11.925781 7.328125 -12.078125 8.140625 -12.078125 C 9.035156 -12.078125 9.753906 -11.898438 10.296875 -11.546875 C 10.847656 -11.191406 11.25 -10.671875 11.5 -9.984375 L 11.71875 -9.984375 C 12.082031 -10.691406 12.550781 -11.21875 13.125 -11.5625 C 13.707031 -11.90625 14.425781 -12.078125 15.28125 -12.078125 C 17.738281 -12.078125 18.96875 -10.707031 18.96875 -7.96875 L 18.96875 0 L 16 0 L 16 -7.59375 C 16 -8.289062 15.859375 -8.789062 15.578125 -9.09375 C 15.304688 -9.40625 14.875 -9.5625 14.28125 -9.5625 C 12.644531 -9.5625 11.828125 -8.46875 11.828125 -6.28125 L 11.828125 0 L 8.859375 0 L 8.859375 -7.59375 C 8.859375 -8.289062 8.71875 -8.789062 8.4375 -9.09375 C 8.164062 -9.40625 7.726562 -9.5625 7.125 -9.5625 C 6.351562 -9.5625 5.753906 -9.304688 5.328125 -8.796875 C 4.898438 -8.285156 4.6875 -7.46875 4.6875 -6.34375 L 4.6875 0 Z M 1.703125 0 "/></g></g></g><g fill="#ffffff" fill-opacity="1"><g transform="translate(191.586197, 316.569471)"><g><path d="M 4.625 0.21875 C 3.863281 0.21875 3.203125 0.0820312 2.640625 -0.1875 C 2.085938 -0.46875 1.660156 -0.878906 1.359375 -1.421875 C 1.054688 -1.960938 0.90625 -2.613281 0.90625 -3.375 C 0.90625 -4.070312 1.054688 -4.660156 1.359375 -5.140625 C 1.660156 -5.617188 2.125 -6.007812 2.75 -6.3125 C 3.382812 -6.613281 4.207031 -6.847656 5.21875 -7.015625 C 5.925781 -7.128906 6.460938 -7.253906 6.828125 -7.390625 C 7.203125 -7.523438 7.453125 -7.675781 7.578125 -7.84375 C 7.710938 -8.019531 7.78125 -8.242188 7.78125 -8.515625 C 7.78125 -8.890625 7.644531 -9.175781 7.375 -9.375 C 7.113281 -9.570312 6.675781 -9.671875 6.0625 -9.671875 C 5.40625 -9.671875 4.773438 -9.523438 4.171875 -9.234375 C 3.578125 -8.941406 3.0625 -8.554688 2.625 -8.078125 L 2.421875 -8.078125 L 1.171875 -9.953125 C 1.773438 -10.617188 2.507812 -11.140625 3.375 -11.515625 C 4.238281 -11.890625 5.179688 -12.078125 6.203125 -12.078125 C 7.773438 -12.078125 8.910156 -11.742188 9.609375 -11.078125 C 10.316406 -10.410156 10.671875 -9.460938 10.671875 -8.234375 L 10.671875 -3.09375 C 10.671875 -2.5625 10.898438 -2.296875 11.359375 -2.296875 C 11.546875 -2.296875 11.722656 -2.328125 11.890625 -2.390625 L 12.046875 -2.359375 L 12.25 -0.28125 C 12.09375 -0.175781 11.863281 -0.0859375 11.5625 -0.015625 C 11.269531 0.0546875 10.953125 0.09375 10.609375 0.09375 C 9.898438 0.09375 9.34375 -0.0390625 8.9375 -0.3125 C 8.539062 -0.59375 8.257812 -1.019531 8.09375 -1.59375 L 7.859375 -1.625 C 7.285156 -0.394531 6.207031 0.21875 4.625 0.21875 Z M 5.5625 -2 C 6.25 -2 6.796875 -2.226562 7.203125 -2.6875 C 7.617188 -3.15625 7.828125 -3.800781 7.828125 -4.625 L 7.828125 -5.828125 L 7.625 -5.859375 C 7.445312 -5.722656 7.210938 -5.601562 6.921875 -5.5 C 6.628906 -5.40625 6.210938 -5.3125 5.671875 -5.21875 C 5.023438 -5.113281 4.5625 -4.929688 4.28125 -4.671875 C 4 -4.410156 3.859375 -4.039062 3.859375 -3.5625 C 3.859375 -3.050781 4.007812 -2.660156 4.3125 -2.390625 C 4.613281 -2.128906 5.03125 -2 5.5625 -2 Z M 5.5625 -2 "/></g></g></g><g fill="#ffffff" fill-opacity="1"><g transform="translate(204.077147, 316.569471)"><g><path d="M 1.703125 0 L 1.703125 -11.84375 L 4.5625 -11.84375 L 4.5625 -10.109375 L 4.796875 -10.0625 C 5.523438 -11.40625 6.71875 -12.078125 8.375 -12.078125 C 9.75 -12.078125 10.753906 -11.703125 11.390625 -10.953125 C 12.035156 -10.210938 12.359375 -9.128906 12.359375 -7.703125 L 12.359375 0 L 9.375 0 L 9.375 -7.34375 C 9.375 -8.125 9.21875 -8.6875 8.90625 -9.03125 C 8.59375 -9.382812 8.085938 -9.5625 7.390625 -9.5625 C 6.535156 -9.5625 5.867188 -9.285156 5.390625 -8.734375 C 4.921875 -8.179688 4.6875 -7.316406 4.6875 -6.140625 L 4.6875 0 Z M 1.703125 0 "/></g></g></g><g fill="#ffffff" fill-opacity="1"><g transform="translate(217.953589, 316.569471)"><g><path d="M 4.625 0.21875 C 3.863281 0.21875 3.203125 0.0820312 2.640625 -0.1875 C 2.085938 -0.46875 1.660156 -0.878906 1.359375 -1.421875 C 1.054688 -1.960938 0.90625 -2.613281 0.90625 -3.375 C 0.90625 -4.070312 1.054688 -4.660156 1.359375 -5.140625 C 1.660156 -5.617188 2.125 -6.007812 2.75 -6.3125 C 3.382812 -6.613281 4.207031 -6.847656 5.21875 -7.015625 C 5.925781 -7.128906 6.460938 -7.253906 6.828125 -7.390625 C 7.203125 -7.523438 7.453125 -7.675781 7.578125 -7.84375 C 7.710938 -8.019531 7.78125 -8.242188 7.78125 -8.515625 C 7.78125 -8.890625 7.644531 -9.175781 7.375 -9.375 C 7.113281 -9.570312 6.675781 -9.671875 6.0625 -9.671875 C 5.40625 -9.671875 4.773438 -9.523438 4.171875 -9.234375 C 3.578125 -8.941406 3.0625 -8.554688 2.625 -8.078125 L 2.421875 -8.078125 L 1.171875 -9.953125 C 1.773438 -10.617188 2.507812 -11.140625 3.375 -11.515625 C 4.238281 -11.890625 5.179688 -12.078125 6.203125 -12.078125 C 7.773438 -12.078125 8.910156 -11.742188 9.609375 -11.078125 C 10.316406 -10.410156 10.671875 -9.460938 10.671875 -8.234375 L 10.671875 -3.09375 C 10.671875 -2.5625 10.898438 -2.296875 11.359375 -2.296875 C 11.546875 -2.296875 11.722656 -2.328125 11.890625 -2.390625 L 12.046875 -2.359375 L 12.25 -0.28125 C 12.09375 -0.175781 11.863281 -0.0859375 11.5625 -0.015625 C 11.269531 0.0546875 10.953125 0.09375 10.609375 0.09375 C 9.898438 0.09375 9.34375 -0.0390625 8.9375 -0.3125 C 8.539062 -0.59375 8.257812 -1.019531 8.09375 -1.59375 L 7.859375 -1.625 C 7.285156 -0.394531 6.207031 0.21875 4.625 0.21875 Z M 5.5625 -2 C 6.25 -2 6.796875 -2.226562 7.203125 -2.6875 C 7.617188 -3.15625 7.828125 -3.800781 7.828125 -4.625 L 7.828125 -5.828125 L 7.625 -5.859375 C 7.445312 -5.722656 7.210938 -5.601562 6.921875 -5.5 C 6.628906 -5.40625 6.210938 -5.3125 5.671875 -5.21875 C 5.023438 -5.113281 4.5625 -4.929688 4.28125 -4.671875 C 4 -4.410156 3.859375 -4.039062 3.859375 -3.5625 C 3.859375 -3.050781 4.007812 -2.660156 4.3125 -2.390625 C 4.613281 -2.128906 5.03125 -2 5.5625 -2 Z M 5.5625 -2 "/></g></g></g><g fill="#ffffff" fill-opacity="1"><g transform="translate(230.44454, 316.569471)"><g><path d="M 6.140625 5.03125 C 4.191406 5.03125 2.75 4.742188 1.8125 4.171875 C 0.882812 3.597656 0.421875 2.796875 0.421875 1.765625 C 0.421875 1.148438 0.617188 0.640625 1.015625 0.234375 C 1.410156 -0.160156 1.984375 -0.425781 2.734375 -0.5625 L 2.734375 -0.78125 C 2.328125 -1.03125 2.035156 -1.300781 1.859375 -1.59375 C 1.679688 -1.894531 1.59375 -2.238281 1.59375 -2.625 C 1.59375 -3.582031 2.210938 -4.226562 3.453125 -4.5625 L 3.453125 -4.78125 C 2.816406 -5.144531 2.335938 -5.597656 2.015625 -6.140625 C 1.691406 -6.679688 1.53125 -7.332031 1.53125 -8.09375 C 1.53125 -8.882812 1.710938 -9.578125 2.078125 -10.171875 C 2.441406 -10.773438 2.972656 -11.242188 3.671875 -11.578125 C 4.367188 -11.910156 5.203125 -12.078125 6.171875 -12.078125 C 7.160156 -12.078125 7.953125 -11.90625 8.546875 -11.5625 C 8.910156 -12.09375 9.117188 -12.703125 9.171875 -13.390625 L 9.40625 -13.53125 L 11.53125 -13.015625 C 11.46875 -12.441406 11.300781 -11.960938 11.03125 -11.578125 C 10.769531 -11.203125 10.363281 -10.863281 9.8125 -10.5625 L 9.8125 -10.328125 C 10.476562 -9.734375 10.8125 -8.910156 10.8125 -7.859375 C 10.8125 -7.128906 10.628906 -6.472656 10.265625 -5.890625 C 9.898438 -5.316406 9.363281 -4.859375 8.65625 -4.515625 C 7.957031 -4.179688 7.128906 -4.015625 6.171875 -4.015625 L 5.71875 -4.03125 C 5.4375 -4.039062 5.238281 -4.046875 5.125 -4.046875 C 4.851562 -4.046875 4.640625 -3.972656 4.484375 -3.828125 C 4.328125 -3.679688 4.25 -3.492188 4.25 -3.265625 C 4.25 -3.015625 4.347656 -2.816406 4.546875 -2.671875 C 4.753906 -2.535156 5.050781 -2.460938 5.4375 -2.453125 L 8.09375 -2.359375 C 10.707031 -2.273438 12.015625 -1.144531 12.015625 1.03125 C 12.015625 1.800781 11.816406 2.484375 11.421875 3.078125 C 11.035156 3.671875 10.40625 4.144531 9.53125 4.5 C 8.664062 4.851562 7.535156 5.03125 6.140625 5.03125 Z M 6.171875 -6.109375 C 6.742188 -6.109375 7.191406 -6.273438 7.515625 -6.609375 C 7.835938 -6.941406 8 -7.421875 8 -8.046875 C 8 -8.671875 7.835938 -9.148438 7.515625 -9.484375 C 7.191406 -9.816406 6.742188 -9.984375 6.171875 -9.984375 C 5.597656 -9.984375 5.148438 -9.816406 4.828125 -9.484375 C 4.515625 -9.148438 4.359375 -8.671875 4.359375 -8.046875 C 4.359375 -7.410156 4.515625 -6.925781 4.828125 -6.59375 C 5.148438 -6.269531 5.597656 -6.109375 6.171875 -6.109375 Z M 6.140625 2.875 C 7.160156 2.875 7.898438 2.726562 8.359375 2.4375 C 8.828125 2.15625 9.0625 1.785156 9.0625 1.328125 C 9.0625 0.953125 8.941406 0.675781 8.703125 0.5 C 8.460938 0.320312 8.085938 0.226562 7.578125 0.21875 L 5.234375 0.109375 C 5.148438 0.109375 5.070312 0.101562 5 0.09375 C 4.9375 0.09375 4.875 0.09375 4.8125 0.09375 C 4.3125 0.09375 3.929688 0.195312 3.671875 0.40625 C 3.410156 0.625 3.28125 0.921875 3.28125 1.296875 C 3.28125 1.796875 3.519531 2.179688 4 2.453125 C 4.476562 2.734375 5.191406 2.875 6.140625 2.875 Z M 6.140625 2.875 "/></g></g></g><g fill="#ffffff" fill-opacity="1"><g transform="translate(242.763646, 316.569471)"><g><path d="M 11.703125 -5.25 L 4.09375 -5.25 C 4.175781 -4.21875 4.46875 -3.46875 4.96875 -3 C 5.46875 -2.53125 6.15625 -2.296875 7.03125 -2.296875 C 7.707031 -2.296875 8.253906 -2.421875 8.671875 -2.671875 C 9.097656 -2.929688 9.441406 -3.316406 9.703125 -3.828125 L 9.921875 -3.828125 L 11.90625 -2.5625 C 11.519531 -1.738281 10.9375 -1.066406 10.15625 -0.546875 C 9.375 -0.0351562 8.332031 0.21875 7.03125 0.21875 C 5.800781 0.21875 4.738281 -0.0078125 3.84375 -0.46875 C 2.957031 -0.9375 2.269531 -1.628906 1.78125 -2.546875 C 1.300781 -3.472656 1.0625 -4.597656 1.0625 -5.921875 C 1.0625 -7.265625 1.316406 -8.394531 1.828125 -9.3125 C 2.335938 -10.238281 3.023438 -10.929688 3.890625 -11.390625 C 4.753906 -11.847656 5.726562 -12.078125 6.8125 -12.078125 C 8.488281 -12.078125 9.769531 -11.628906 10.65625 -10.734375 C 11.550781 -9.847656 12 -8.546875 12 -6.828125 C 12 -6.203125 11.976562 -5.71875 11.9375 -5.375 Z M 9.15625 -7.171875 C 9.125 -8.078125 8.910156 -8.734375 8.515625 -9.140625 C 8.128906 -9.554688 7.5625 -9.765625 6.8125 -9.765625 C 5.3125 -9.765625 4.425781 -8.898438 4.15625 -7.171875 Z M 9.15625 -7.171875 "/></g></g></g><g fill="#ffffff" fill-opacity="1"><g transform="translate(255.641246, 316.569471)"><g><path d="M 1.703125 0 L 1.703125 -11.84375 L 4.5625 -11.84375 L 4.5625 -10.265625 L 4.796875 -10.21875 C 5.179688 -10.851562 5.628906 -11.320312 6.140625 -11.625 C 6.660156 -11.925781 7.328125 -12.078125 8.140625 -12.078125 C 9.035156 -12.078125 9.753906 -11.898438 10.296875 -11.546875 C 10.847656 -11.191406 11.25 -10.671875 11.5 -9.984375 L 11.71875 -9.984375 C 12.082031 -10.691406 12.550781 -11.21875 13.125 -11.5625 C 13.707031 -11.90625 14.425781 -12.078125 15.28125 -12.078125 C 17.738281 -12.078125 18.96875 -10.707031 18.96875 -7.96875 L 18.96875 0 L 16 0 L 16 -7.59375 C 16 -8.289062 15.859375 -8.789062 15.578125 -9.09375 C 15.304688 -9.40625 14.875 -9.5625 14.28125 -9.5625 C 12.644531 -9.5625 11.828125 -8.46875 11.828125 -6.28125 L 11.828125 0 L 8.859375 0 L 8.859375 -7.59375 C 8.859375 -8.289062 8.71875 -8.789062 8.4375 -9.09375 C 8.164062 -9.40625 7.726562 -9.5625 7.125 -9.5625 C 6.351562 -9.5625 5.753906 -9.304688 5.328125 -8.796875 C 4.898438 -8.285156 4.6875 -7.46875 4.6875 -6.34375 L 4.6875 0 Z M 1.703125 0 "/></g></g></g><g fill="#ffffff" fill-opacity="1"><g transform="translate(276.1337, 316.569471)"><g><path d="M 11.703125 -5.25 L 4.09375 -5.25 C 4.175781 -4.21875 4.46875 -3.46875 4.96875 -3 C 5.46875 -2.53125 6.15625 -2.296875 7.03125 -2.296875 C 7.707031 -2.296875 8.253906 -2.421875 8.671875 -2.671875 C 9.097656 -2.929688 9.441406 -3.316406 9.703125 -3.828125 L 9.921875 -3.828125 L 11.90625 -2.5625 C 11.519531 -1.738281 10.9375 -1.066406 10.15625 -0.546875 C 9.375 -0.0351562 8.332031 0.21875 7.03125 0.21875 C 5.800781 0.21875 4.738281 -0.0078125 3.84375 -0.46875 C 2.957031 -0.9375 2.269531 -1.628906 1.78125 -2.546875 C 1.300781 -3.472656 1.0625 -4.597656 1.0625 -5.921875 C 1.0625 -7.265625 1.316406 -8.394531 1.828125 -9.3125 C 2.335938 -10.238281 3.023438 -10.929688 3.890625 -11.390625 C 4.753906 -11.847656 5.726562 -12.078125 6.8125 -12.078125 C 8.488281 -12.078125 9.769531 -11.628906 10.65625 -10.734375 C 11.550781 -9.847656 12 -8.546875 12 -6.828125 C 12 -6.203125 11.976562 -5.71875 11.9375 -5.375 Z M 9.15625 -7.171875 C 9.125 -8.078125 8.910156 -8.734375 8.515625 -9.140625 C 8.128906 -9.554688 7.5625 -9.765625 6.8125 -9.765625 C 5.3125 -9.765625 4.425781 -8.898438 4.15625 -7.171875 Z M 9.15625 -7.171875 "/></g></g></g><g fill="#ffffff" fill-opacity="1"><g transform="translate(289.0113, 316.569471)"><g><path d="M 1.703125 0 L 1.703125 -11.84375 L 4.5625 -11.84375 L 4.5625 -10.109375 L 4.796875 -10.0625 C 5.523438 -11.40625 6.71875 -12.078125 8.375 -12.078125 C 9.75 -12.078125 10.753906 -11.703125 11.390625 -10.953125 C 12.035156 -10.210938 12.359375 -9.128906 12.359375 -7.703125 L 12.359375 0 L 9.375 0 L 9.375 -7.34375 C 9.375 -8.125 9.21875 -8.6875 8.90625 -9.03125 C 8.59375 -9.382812 8.085938 -9.5625 7.390625 -9.5625 C 6.535156 -9.5625 5.867188 -9.285156 5.390625 -8.734375 C 4.921875 -8.179688 4.6875 -7.316406 4.6875 -6.140625 L 4.6875 0 Z M 1.703125 0 "/></g></g></g><g fill="#ffffff" fill-opacity="1"><g transform="translate(302.887741, 316.569471)"><g><path d="M 8.171875 -2.828125 L 8.953125 -0.625 C 8.628906 -0.351562 8.222656 -0.144531 7.734375 0 C 7.242188 0.144531 6.691406 0.21875 6.078125 0.21875 C 4.796875 0.21875 3.820312 -0.128906 3.15625 -0.828125 C 2.488281 -1.523438 2.15625 -2.539062 2.15625 -3.875 L 2.15625 -9.5 L 0.359375 -9.5 L 0.359375 -11.859375 L 2.15625 -11.859375 L 2.15625 -14.171875 L 5.140625 -14.65625 L 5.140625 -11.859375 L 8.5 -11.859375 L 8.5 -9.5 L 5.140625 -9.5 L 5.140625 -4.078125 C 5.140625 -3.492188 5.257812 -3.066406 5.5 -2.796875 C 5.738281 -2.523438 6.09375 -2.390625 6.5625 -2.390625 C 7.09375 -2.390625 7.554688 -2.535156 7.953125 -2.828125 Z M 8.171875 -2.828125 "/></g></g></g><g fill="#ffffff" fill-opacity="1"><g transform="translate(312.092167, 316.569471)"><g/></g></g><g fill="#ffffff" fill-opacity="1"><g transform="translate(317.279727, 316.569471)"><g><path d="M 1.703125 4.796875 L 1.703125 -11.84375 L 4.6875 -11.84375 L 4.6875 -10.296875 L 4.90625 -10.265625 C 5.257812 -10.859375 5.726562 -11.304688 6.3125 -11.609375 C 6.90625 -11.921875 7.59375 -12.078125 8.375 -12.078125 C 9.332031 -12.078125 10.164062 -11.847656 10.875 -11.390625 C 11.59375 -10.941406 12.148438 -10.253906 12.546875 -9.328125 C 12.941406 -8.410156 13.140625 -7.273438 13.140625 -5.921875 C 13.140625 -4.566406 12.925781 -3.429688 12.5 -2.515625 C 12.082031 -1.597656 11.5 -0.910156 10.75 -0.453125 C 10.007812 -0.00390625 9.15625 0.21875 8.1875 0.21875 C 7.445312 0.21875 6.804688 0.0976562 6.265625 -0.140625 C 5.734375 -0.390625 5.28125 -0.773438 4.90625 -1.296875 L 4.6875 -1.25 L 4.6875 4.796875 Z M 7.359375 -2.296875 C 8.242188 -2.296875 8.914062 -2.585938 9.375 -3.171875 C 9.832031 -3.753906 10.0625 -4.671875 10.0625 -5.921875 C 10.0625 -7.171875 9.832031 -8.085938 9.375 -8.671875 C 8.914062 -9.253906 8.242188 -9.546875 7.359375 -9.546875 C 6.523438 -9.546875 5.863281 -9.242188 5.375 -8.640625 C 4.894531 -8.046875 4.65625 -7.140625 4.65625 -5.921875 C 4.65625 -4.710938 4.894531 -3.804688 5.375 -3.203125 C 5.863281 -2.597656 6.523438 -2.296875 7.359375 -2.296875 Z M 7.359375 -2.296875 "/></g></g></g><g fill="#ffffff" fill-opacity="1"><g transform="translate(331.467642, 316.569471)"><g><path d="M 8.171875 -2.828125 L 8.953125 -0.625 C 8.628906 -0.351562 8.222656 -0.144531 7.734375 0 C 7.242188 0.144531 6.691406 0.21875 6.078125 0.21875 C 4.796875 0.21875 3.820312 -0.128906 3.15625 -0.828125 C 2.488281 -1.523438 2.15625 -2.539062 2.15625 -3.875 L 2.15625 -9.5 L 0.359375 -9.5 L 0.359375 -11.859375 L 2.15625 -11.859375 L 2.15625 -14.171875 L 5.140625 -14.65625 L 5.140625 -11.859375 L 8.5 -11.859375 L 8.5 -9.5 L 5.140625 -9.5 L 5.140625 -4.078125 C 5.140625 -3.492188 5.257812 -3.066406 5.5 -2.796875 C 5.738281 -2.523438 6.09375 -2.390625 6.5625 -2.390625 C 7.09375 -2.390625 7.554688 -2.535156 7.953125 -2.828125 Z M 8.171875 -2.828125 "/></g></g></g><g fill="#ffffff" fill-opacity="1"><g transform="translate(340.672067, 316.569471)"><g><path d="M 2.625 5.03125 C 2.113281 5.03125 1.648438 4.988281 1.234375 4.90625 C 0.828125 4.832031 0.492188 4.726562 0.234375 4.59375 L 0.703125 2.1875 L 0.90625 2.125 C 1.082031 2.21875 1.300781 2.289062 1.5625 2.34375 C 1.832031 2.40625 2.109375 2.4375 2.390625 2.4375 C 2.867188 2.4375 3.265625 2.375 3.578125 2.25 C 3.898438 2.125 4.171875 1.914062 4.390625 1.625 C 4.617188 1.332031 4.816406 0.929688 4.984375 0.421875 L 0.265625 -11.84375 L 3.375 -11.84375 L 6.3125 -3.609375 L 6.578125 -3.609375 L 9.4375 -11.84375 L 12.46875 -11.84375 L 7.71875 0.734375 C 7.332031 1.753906 6.910156 2.570312 6.453125 3.1875 C 6.003906 3.8125 5.46875 4.273438 4.84375 4.578125 C 4.226562 4.878906 3.488281 5.03125 2.625 5.03125 Z M 2.625 5.03125 "/></g></g></g><g fill="#ffffff" fill-opacity="1"><g transform="translate(166.242181, 347.319469)"><g><path d="M 5.140625 -15.703125 L 5.140625 -2.59375 L 12.203125 -2.59375 L 12.203125 0 L 2.046875 0 L 2.046875 -15.703125 Z M 5.140625 -15.703125 "/></g></g></g><g fill="#ffffff" fill-opacity="1"><g transform="translate(178.958672, 347.319469)"><g><path d="M 12.59375 -15.703125 L 12.59375 -13.09375 L 8.0625 -13.09375 L 8.0625 0 L 4.96875 0 L 4.96875 -13.09375 L 0.4375 -13.09375 L 0.4375 -15.703125 Z M 12.59375 -15.703125 "/></g></g></g><g fill="#ffffff" fill-opacity="1"><g transform="translate(191.975891, 347.319469)"><g><path d="M 7.6875 -15.703125 C 10.238281 -15.703125 12.1875 -15.039062 13.53125 -13.71875 C 14.875 -12.40625 15.546875 -10.453125 15.546875 -7.859375 C 15.546875 -5.265625 14.875 -3.304688 13.53125 -1.984375 C 12.1875 -0.660156 10.238281 0 7.6875 0 L 2.046875 0 L 2.046875 -15.703125 Z M 7.515625 -2.609375 C 9.128906 -2.609375 10.335938 -3.019531 11.140625 -3.84375 C 11.941406 -4.675781 12.34375 -6.015625 12.34375 -7.859375 C 12.34375 -9.691406 11.941406 -11.019531 11.140625 -11.84375 C 10.335938 -12.675781 9.128906 -13.09375 7.515625 -13.09375 L 5.140625 -13.09375 L 5.140625 -2.609375 Z M 7.515625 -2.609375 "/></g></g></g></svg>